<svg xmlns="http://www.w3.org/2000/svg" viewBox="0 0 513.78 161.43"><defs><style>.cls-1{fill:#0d0c0d;}.cls-2{fill:#0e0d0d;}.cls-3{fill:none;stroke:#e03431;stroke-miterlimit:10;stroke-width:9px;opacity:0.6;}</style></defs><g id="base"><path class="cls-1" d="M83.55,362.92v36.56H78.84V376.54L65.81,395h-.1L52.92,377.18v22.3h-4.6V362.92h0l17.44,24.7,17.69-24.7Zm44.24,27.25H114.17l-3.77,9.31h-4.71l15.49-36.9h.29L137,399.48h-5.49Zm-1.61-4.12-5.05-12.94-5.24,12.94Zm37.58-6,.59-.93,14.5-15.09H185l-14.65,15.19,15.48,20.24h-6l-12.93-17.2-3,2.89,0,14.31h-4.85V364.05h4.85v14.26Zm67.13-16v4.55H212.61v10.79h16.32v4.55H212.61v10.93h19v4.61H207.86V364.05Zm54.19,4.65a14.51,14.51,0,0,0-4.06-.63,7.4,7.4,0,0,0-4.59,1.29,4.41,4.41,0,0,0,.3,7.16,25.89,25.89,0,0,0,5.66,2.77,24.88,24.88,0,0,1,4.63,2.13,9.43,9.43,0,0,1,3.13,3.18,9.92,9.92,0,0,1-4.21,13.94,13.4,13.4,0,0,1-6.15,1.33,18.93,18.93,0,0,1-6.32-1.06,21.17,21.17,0,0,1-5.34-2.67l2.11-3.77a16.93,16.93,0,0,0,4.36,2.33,13.68,13.68,0,0,0,4.75.95,8.54,8.54,0,0,0,5-1.47,5,5,0,0,0,2.13-4.36,4.74,4.74,0,0,0-1.78-3.89,19.29,19.29,0,0,0-5-2.72,40,40,0,0,1-5-2.21,10.57,10.57,0,0,1-3.41-3,7.7,7.7,0,0,1-1.42-4.73,8.58,8.58,0,0,1,2.92-6.74,11.64,11.64,0,0,1,7.57-2.72A20.85,20.85,0,0,1,291,366.69l-1.81,3.68A21.2,21.2,0,0,0,285.08,368.7Zm48.29-1.76a10.25,10.25,0,0,1,3.26,8.08,13.14,13.14,0,0,1-1.2,5.59,9.55,9.55,0,0,1-3.87,4.21,12.81,12.81,0,0,1-6.74,1.62h-5.24v13h-4.76V364.05h9.51C328.18,364.05,331.2,365,333.37,366.94ZM329,380.76a6.3,6.3,0,0,0,2.28-2.62,7.39,7.39,0,0,0,.69-3,6.84,6.84,0,0,0-1.67-4.53c-1.11-1.32-2.84-2-5.19-2h-5.49v13.23h5.24A7.23,7.23,0,0,0,329,380.76Zm53.53-16.71v4.55H364.21v10.79h16.32v4.55H364.21v10.93h19v4.61H359.46V364.05Zm46.13,34.86a16.43,16.43,0,0,1-5.7,1,18.75,18.75,0,0,1-9.58-2.4A16.57,16.57,0,0,1,407,391a18.3,18.3,0,0,1-2.23-9A19.61,19.61,0,0,1,407,372.6a16.75,16.75,0,0,1,6.25-6.57,17.38,17.38,0,0,1,9-2.37,19.33,19.33,0,0,1,10.24,2.84L430.61,371a14.53,14.53,0,0,0-8.18-2.75,11.78,11.78,0,0,0-6.35,1.82,13.26,13.26,0,0,0-4.65,4.92,13.78,13.78,0,0,0-1.74,6.84,14.9,14.9,0,0,0,1.59,6.91,11.71,11.71,0,0,0,4.56,4.82,14.17,14.17,0,0,0,15.11-.95l2,4.26A21.22,21.22,0,0,1,428.62,398.91Zm32.56-34.86v35.43h-4.75V364.05Zm44.25,26.12H491.81L488,399.48h-4.71l15.48-36.9h.3l15.48,36.9H509.1Zm-1.62-4.12-5-12.94-5.25,12.94Zm37.63-22v30.82h18v4.61H536.69V364.05Z" transform="translate(-45.82 -342.59)"/><path class="cls-2" d="M81.78,482.45,73.5,461.28l-9.06,21.27L50.32,445.6h5.54L65,471.38l6.13-16.08-3.77-9.7h4.7l9.85,25.24,8.72-25.24h5.1Zm41.26-37v35.42h-4.75V445.46Zm46.6,0V450h-9.51v30.87h-4.75V450h-9.26v-4.55Zm51.15,35.42H216V465.35H197.47v15.53h-4.75V445.46h4.75v15.33H216V445.46h4.75Zm91.63,0-8.33-13.08a10.91,10.91,0,0,1-1.18.05h-5.24v13h-4.75V445.46h9.46a15.62,15.62,0,0,1,6.46,1.27,10.14,10.14,0,0,1,4.46,3.75,10.62,10.62,0,0,1,1.62,5.95,12.67,12.67,0,0,1-1.45,6,9.34,9.34,0,0,1-4.43,4.16L318,480.88Zm-4.09-19.65a6.92,6.92,0,0,0,1.69-4.6,7.26,7.26,0,0,0-.71-3.09,6.12,6.12,0,0,0-2.26-2.52,7,7,0,0,0-3.89-1h-5.49v13.23h5.15Q306.63,463.24,308.33,461.23Zm37.16-15.77v35.42h-4.75V445.46Zm53.85,0-15.63,37.09-15.63-37.09h5.64L383.91,471l9.85-25.52Zm35.38,31a2.41,2.41,0,0,1,3.55,0,2.53,2.53,0,0,1,.81,1.87,2.45,2.45,0,0,1-.78,1.86,2.52,2.52,0,0,1-1.77.73,2.56,2.56,0,0,1-1.81-.73,2.45,2.45,0,0,1-.78-1.86A2.58,2.58,0,0,1,434.72,476.42Z" transform="translate(-45.82 -342.59)"/></g></svg>