<svg xmlns="http://www.w3.org/2000/svg" viewBox="0 0 512.45 188.72"><defs><style>.cls-1{fill:#231815;}.cls-2{fill:#070102;}.cls-3{fill:none;stroke:#e61c3c;stroke-linecap:round;stroke-linejoin:round;stroke-width:14px;opacity:1;}</style></defs><g id="base"><path class="cls-1" d="M108.47,328.14l-13-33.26L81.21,328.29,59,270.24h8.7l14.4,40.5,9.63-25.26-5.93-15.24h7.39l15.48,39.65,13.7-39.65h8ZM202,270v7.17H173.3v16.94h25.64v7.16H173.3v17.17h29.8v7.24H165.83V270Zm118.12-1.77v57.45h-7.39v-36l-20.49,29h-.15l-20.1-28v35h-7.23V268.23h.07L292.26,307l27.8-38.81Zm69.53,42.82H368.26l-5.93,14.63h-7.39l24.33-58h.47l24.33,58h-8.63Zm-2.54-6.47-7.93-20.33L371,304.58Zm59.06-9.4.92-1.46L469.9,270h9.63l-23,23.88,24.34,31.8h-9.47l-20.33-27-4.7,4.54.08,22.49h-7.63V270h7.63v22.41ZM551.68,270v7.17H523v16.94H548.6v7.16H523v17.17h29.8v7.24H515.49V270Z" transform="translate(-55.23 -260.69)"/><path class="cls-2" d="M68.58,382.48v55.67H61.11V382.48Zm73.23,0v7.16H126.87v48.51H119.4V389.64H104.85v-7.16Zm107.33,7.32a22.51,22.51,0,0,0-6.39-1,11.53,11.53,0,0,0-7.2,2,6.94,6.94,0,0,0,.46,11.24,40.7,40.7,0,0,0,8.9,4.35,39.45,39.45,0,0,1,7.27,3.35,14.93,14.93,0,0,1,4.93,5,15.32,15.32,0,0,1,2,8.13,15.05,15.05,0,0,1-2.24,8.08,15.32,15.32,0,0,1-6.35,5.7,21.15,21.15,0,0,1-9.66,2.08,30.26,30.26,0,0,1-9.94-1.65,34.11,34.11,0,0,1-8.39-4.2l3.31-5.93a27,27,0,0,0,6.85,3.66,21.38,21.38,0,0,0,7.47,1.5,13.43,13.43,0,0,0,7.82-2.31A7.79,7.79,0,0,0,251.3,423a7.49,7.49,0,0,0-2.81-6.13,30.9,30.9,0,0,0-7.89-4.27,64.74,64.74,0,0,1-7.82-3.46,16.62,16.62,0,0,1-5.35-4.66A12,12,0,0,1,225.2,397a13.41,13.41,0,0,1,4.58-10.59q4.58-4.05,11.89-4.27a32.68,32.68,0,0,1,16.71,4.46l-2.85,5.78A33.35,33.35,0,0,0,249.14,389.8Zm55.29,35.3a12.92,12.92,0,0,0,4.81,4.7,13.32,13.32,0,0,0,6.74,1.73,14.38,14.38,0,0,0,7-1.69,12.53,12.53,0,0,0,4.88-4.7,12.84,12.84,0,0,0,1.78-6.7v-36h7.31v36.19a19.85,19.85,0,0,1-2.77,10.51,18.88,18.88,0,0,1-7.55,7.09,23.66,23.66,0,0,1-21.17,0,18.59,18.59,0,0,1-7.51-7.09,20.1,20.1,0,0,1-2.73-10.51V382.48h7.47v36A12.71,12.71,0,0,0,304.43,425.1ZM405.72,387q5.11,4.55,5.12,12.7a20.64,20.64,0,0,1-1.89,8.78,15,15,0,0,1-6.08,6.62,20.11,20.11,0,0,1-10.59,2.54H384v20.48h-7.46V382.48h14.93Q400.6,382.48,405.72,387Zm-6.93,21.71a9.75,9.75,0,0,0,3.58-4.12,11.58,11.58,0,0,0,1.08-4.73,10.76,10.76,0,0,0-2.62-7.13q-2.62-3.12-8.16-3.12H384v20.79h8.24A11.4,11.4,0,0,0,398.79,408.74Zm84.12-26.26v7.16H454.19v16.94h25.64v7.17H454.19v17.17H484v7.23H446.72V382.48ZM552,438.15,538.89,417.6a17,17,0,0,1-1.85.07H528.8v20.48h-7.47V382.48H536.2a24.54,24.54,0,0,1,10.16,2,15.9,15.9,0,0,1,7,5.89,16.74,16.74,0,0,1,2.54,9.35,20,20,0,0,1-2.27,9.47,14.81,14.81,0,0,1-7,6.55l14,22.4Zm-6.43-30.87a11,11,0,0,0,2.66-7.24,11.41,11.41,0,0,0-1.12-4.85,9.52,9.52,0,0,0-3.54-4,11,11,0,0,0-6.12-1.58H528.8v20.79h8.09Q542.89,410.43,545.55,407.28Z" transform="translate(-55.23 -260.69)"/></g>
</svg>